<svg width="187" height="31" viewBox="0 0 187 31" fill="none" xmlns="http://www.w3.org/2000/svg">
<g clip-path="url(#clip0_7_5907)">
<path d="M38.2432 25.1639V6.17371H46.0336C47.843 6.17371 49.3035 6.68076 50.4183 7.69163C51.5298 8.70573 52.0888 10.0234 52.0888 11.6512C52.0888 12.8978 51.7302 13.9797 51.0161 14.8937C50.302 15.8077 49.3359 16.4342 48.1242 16.7798L52.1696 25.1639H49.8625L46.0077 17.0511H40.3337V25.1639H38.2432ZM45.8688 8.01782H40.3305V15.3168H45.8688C47.116 15.3168 48.1177 14.9809 48.8673 14.3124C49.617 13.6438 49.995 12.7654 49.995 11.6802C49.995 10.5951 49.6202 9.69077 48.8673 9.02224C48.1177 8.3537 47.116 8.01782 45.8688 8.01782Z" fill="#ffffff"/>
<path d="M57.1582 25.164V6.17383H70.1314V7.99211H59.2488V14.6645H66.7936V16.4828H59.2488V23.3458H70.2413V25.164H57.1582Z" fill="#ffffff"/>
<path d="M73.6595 22.2046L74.9358 20.6867C76.0764 21.7525 77.1492 22.5147 78.1508 22.9668C79.1557 23.419 80.2737 23.645 81.5016 23.645C82.9686 23.645 84.1803 23.2801 85.1399 22.547C86.0996 21.8138 86.5778 20.9063 86.5778 19.8212C86.5778 18.8813 86.2547 18.1579 85.6149 17.6509C84.9719 17.1438 83.883 16.7563 82.3449 16.485L79.2785 15.9682C77.5401 15.6614 76.2703 15.1318 75.4657 14.3825C74.6611 13.6332 74.2573 12.6223 74.2573 11.3563C74.2573 9.76411 74.8647 8.46257 76.0764 7.44847C77.2881 6.43436 78.852 5.93054 80.7713 5.93054C82.1834 5.93054 83.4952 6.12432 84.7069 6.5151C85.9186 6.90589 87.1142 7.51306 88.2903 8.3463L87.2046 9.97404C86.2288 9.2506 85.1916 8.68864 84.0962 8.2914C83.0009 7.89416 81.9023 7.69392 80.7972 7.69392C79.4756 7.69392 78.39 8.02334 77.5401 8.68541C76.6903 9.34426 76.2638 10.1646 76.2638 11.1399C76.2638 11.9732 76.5449 12.6223 77.1039 13.0939C77.6662 13.5654 78.5774 13.898 79.844 14.0983L82.8845 14.615C84.8943 14.9767 86.3581 15.5645 87.2822 16.3784C88.2063 17.1923 88.6652 18.3032 88.6652 19.7146C88.6652 20.5285 88.4842 21.2874 88.1223 21.9947C87.7604 22.6988 87.2596 23.3059 86.6166 23.813C85.9736 24.32 85.2078 24.7173 84.3224 25.0079C83.4371 25.2986 82.4774 25.4407 81.4467 25.4407C79.9635 25.4407 78.5838 25.1727 77.3075 24.6398C76.0312 24.1069 74.8162 23.2962 73.6562 22.2111L73.6595 22.2046Z" fill="#ffffff"/>
<path d="M93.583 25.1632V6.17297H106.556V7.99125H95.6736V14.6637H103.218V16.4819H95.6736V23.3449H106.666V25.1632H93.583Z" fill="#ffffff"/>
<path d="M109.949 25.1639L117.468 6.17371H119.966L127.375 25.1639H125.123L122.871 19.1956H114.402L112.15 25.1639H109.952H109.949ZM115.051 17.542H122.244L118.635 8.04689L115.051 17.542Z" fill="#ffffff"/>
<path d="M131.389 25.164V6.17383H139.179C140.989 6.17383 142.449 6.68088 143.564 7.69175C144.675 8.70586 145.234 10.0235 145.234 11.6513C145.234 12.8979 144.876 13.9798 144.162 14.8938C143.447 15.8078 142.485 16.4344 141.27 16.7799L145.315 25.164H143.008L139.153 17.0512H133.479V25.164H131.389ZM139.014 8.01795H133.476V15.3169H139.014C140.262 15.3169 141.263 14.981 142.013 14.3125C142.762 13.644 143.141 12.7655 143.141 11.6803C143.141 10.5952 142.766 9.69089 142.013 9.02236C141.263 8.35383 140.262 8.01795 139.014 8.01795Z" fill="#ffffff"/>
<path d="M159.129 23.5595C160.215 23.5595 161.265 23.3334 162.276 22.8813C163.291 22.4291 164.141 21.7865 164.829 20.9564L166.186 22.3387C165.262 23.3334 164.186 24.1021 162.955 24.6447C161.724 25.1872 160.431 25.4585 159.074 25.4585C157.717 25.4585 156.447 25.2002 155.262 24.6867C154.076 24.1699 153.055 23.4755 152.195 22.5971C151.336 21.7186 150.657 20.6851 150.159 19.4902C149.662 18.2952 149.413 17.0228 149.413 15.6663C149.413 14.3099 149.662 13.0309 150.159 11.8263C150.657 10.6249 151.339 9.58492 152.208 8.70646C153.077 7.828 154.098 7.13686 155.274 6.62981C156.451 6.12276 157.717 5.87085 159.074 5.87085C160.431 5.87085 161.789 6.14214 163.036 6.68472C164.283 7.22729 165.353 7.99594 166.238 8.99067L164.855 10.4279C164.151 9.59461 163.281 8.94545 162.251 8.47393C161.22 8.0024 160.16 7.76987 159.074 7.76987C157.989 7.76987 157.013 7.97334 156.089 8.38027C155.165 8.7872 154.37 9.3427 153.701 10.05C153.032 10.754 152.502 11.5905 152.114 12.5594C151.723 13.5283 151.53 14.5618 151.53 15.6663C151.53 16.7708 151.723 17.8043 152.114 18.7732C152.502 19.7421 153.032 20.5786 153.701 21.2826C154.37 21.9867 155.171 22.5454 156.102 22.9523C157.032 23.3593 158.044 23.5627 159.129 23.5627V23.5595Z" fill="#ffffff"/>
<path d="M171.342 25.164V6.17383H173.432V14.6645H184.344V6.17383H186.435V25.164H184.344V16.5377H173.432V25.164H171.342Z" fill="#ffffff"/>
<path d="M15.0128 0.665039C6.72156 0.665039 0.00390625 7.37943 0.00390625 15.6667C0.00390625 23.9539 6.72156 30.6683 15.0128 30.6683C23.3041 30.6683 30.0217 23.9539 30.0217 15.6667C30.0217 7.37943 23.3008 0.665039 15.0128 0.665039ZM15.0128 25.3039C9.6878 25.3039 5.36769 20.9891 5.36769 15.6634C5.36769 10.3378 9.68457 6.02299 15.0128 6.02299C16.8675 6.02299 18.5994 6.54942 20.0729 7.45694L18.6931 9.72414C17.6236 9.05884 16.3634 8.67451 15.0128 8.67451C11.158 8.67451 8.0205 11.8105 8.0205 15.6634C8.0205 19.5164 11.158 22.6523 15.0128 22.6523C18.0598 22.6523 20.6545 20.6952 21.6109 17.9726L12.4731 15.615H24.6547C24.6547 15.6311 24.6547 15.6473 24.6547 15.6634C24.6547 20.9859 20.3378 25.3039 15.0096 25.3039H15.0128Z" fill="#ffffff"/>
</g>
<defs>
<clipPath id="clip0_7_5907">
<rect width="186.43" height="30" fill="white" transform="translate(0 0.666016)"/>
</clipPath>
</defs>
</svg>
